<?xml version="1.0" encoding="UTF-8" standalone="no"?>
<!DOCTYPE svg PUBLIC "-//W3C//DTD SVG 1.1//EN"
 "http://www.w3.org/Graphics/SVG/1.1/DTD/svg11.dtd">
<!-- Generated by graphviz version 2.38.0 (20140413.2041)
 -->
<!-- Title: G Pages: 1 -->
<svg width="265pt" height="1003pt"
 viewBox="0.00 0.00 265.39 1003.23" xmlns="http://www.w3.org/2000/svg" xmlns:xlink="http://www.w3.org/1999/xlink">
<g id="graph0" class="graph" transform="scale(1 1) rotate(0) translate(4 999.232)">
<title>G</title>
<polygon fill="white" stroke="none" points="-4,4 -4,-999.232 261.387,-999.232 261.387,4 -4,4"/>
<!-- n1 -->
<g id="node1" class="node"><title>n1</title>
<g id="a_node1"><a xlink:title="[nngraph.lua]:14_">
<ellipse fill="none" stroke="black" cx="128.693" cy="-190.856" rx="124.402" ry="58.8803"/>
<text text-anchor="middle" x="128.693" y="-217.156" font-family="Times,serif" font-size="14.00">output (1)</text>
<text text-anchor="start" x="48.6934" y="-202.156" font-family="Times,serif" font-size="14.00">input = {Tensor[10]}</text>
<text text-anchor="start" x="48.6934" y="-187.156" font-family="Times,serif" font-size="14.00">module = nn.Linear(10 &#45;&gt; 1)</text>
<text text-anchor="start" x="48.6934" y="-172.156" font-family="Times,serif" font-size="14.00">reverseMap = {}</text>
<text text-anchor="middle" x="128.693" y="-157.156" font-family="Times,serif" font-size="14.00">gradOutput = {Tensor[1]}</text>
</a>
</g>
</g>
<!-- n2 -->
<g id="node2" class="node"><title>n2</title>
<g id="a_node2"><a xlink:title="[[C]]:&#45;1_">
<ellipse fill="none" stroke="black" cx="128.693" cy="-48.0833" rx="113.689" ry="48.1667"/>
<text text-anchor="middle" x="128.693" y="-66.8833" font-family="Times,serif" font-size="14.00">Node2</text>
<text text-anchor="start" x="56.1934" y="-51.8833" font-family="Times,serif" font-size="14.00">input = {Tensor[1]}</text>
<text text-anchor="start" x="56.1934" y="-36.8833" font-family="Times,serif" font-size="14.00">reverseMap = {}</text>
<text text-anchor="middle" x="128.693" y="-21.8833" font-family="Times,serif" font-size="14.00">gradOutput = {Tensor[1]}</text>
</a>
</g>
</g>
<!-- n1&#45;&gt;n2 -->
<g id="edge1" class="edge"><title>n1&#45;&gt;n2</title>
<path fill="none" stroke="black" d="M128.693,-131.786C128.693,-123.386 128.693,-114.745 128.693,-106.361"/>
<polygon fill="black" stroke="black" points="132.194,-106.295 128.693,-96.2952 125.194,-106.295 132.194,-106.295"/>
</g>
<!-- n3 -->
<g id="node3" class="node"><title>n3</title>
<g id="a_node3"><a xlink:title="[nngraph.lua]:13_">
<ellipse fill="none" stroke="black" cx="128.693" cy="-344.236" rx="118.174" ry="58.8803"/>
<text text-anchor="middle" x="128.693" y="-370.536" font-family="Times,serif" font-size="14.00">h2 (3)</text>
<text text-anchor="start" x="53.1934" y="-355.536" font-family="Times,serif" font-size="14.00">input = {Tensor[10]}</text>
<text text-anchor="start" x="53.1934" y="-340.536" font-family="Times,serif" font-size="14.00">module = nn.Sigmoid</text>
<text text-anchor="start" x="53.1934" y="-325.536" font-family="Times,serif" font-size="14.00">reverseMap = {}</text>
<text text-anchor="middle" x="128.693" y="-310.536" font-family="Times,serif" font-size="14.00">gradOutput = {Tensor[10]}</text>
</a>
</g>
</g>
<!-- n3&#45;&gt;n1 -->
<g id="edge2" class="edge"><title>n3&#45;&gt;n1</title>
<path fill="none" stroke="black" d="M128.693,-285.142C128.693,-276.902 128.693,-268.368 128.693,-259.96"/>
<polygon fill="black" stroke="black" points="132.194,-259.795 128.693,-249.795 125.194,-259.795 132.194,-259.795"/>
</g>
<!-- n4 -->
<g id="node4" class="node"><title>n4</title>
<g id="a_node4"><a xlink:title="[nngraph.lua]:12_">
<ellipse fill="none" stroke="black" cx="128.693" cy="-497.616" rx="118.174" ry="58.8803"/>
<text text-anchor="middle" x="128.693" y="-523.916" font-family="Times,serif" font-size="14.00">h1 (4)</text>
<text text-anchor="start" x="53.1934" y="-508.916" font-family="Times,serif" font-size="14.00">input = {Tensor[10]}</text>
<text text-anchor="start" x="53.1934" y="-493.916" font-family="Times,serif" font-size="14.00">module = nn.Tanh</text>
<text text-anchor="start" x="53.1934" y="-478.916" font-family="Times,serif" font-size="14.00">reverseMap = {}</text>
<text text-anchor="middle" x="128.693" y="-463.916" font-family="Times,serif" font-size="14.00">gradOutput = {Tensor[10]}</text>
</a>
</g>
</g>
<!-- n4&#45;&gt;n3 -->
<g id="edge3" class="edge"><title>n4&#45;&gt;n3</title>
<path fill="none" stroke="black" d="M128.693,-438.521C128.693,-430.282 128.693,-421.748 128.693,-413.34"/>
<polygon fill="black" stroke="black" points="132.194,-413.175 128.693,-403.175 125.194,-413.175 132.194,-413.175"/>
</g>
<!-- n5 -->
<g id="node5" class="node"><title>n5</title>
<g id="a_node5"><a xlink:title="[nngraph.lua]:12_">
<ellipse fill="none" stroke="black" cx="128.693" cy="-650.996" rx="128.887" ry="58.8803"/>
<text text-anchor="middle" x="128.693" y="-677.296" font-family="Times,serif" font-size="14.00">Node5</text>
<text text-anchor="start" x="45.6934" y="-662.296" font-family="Times,serif" font-size="14.00">input = {Tensor[20]}</text>
<text text-anchor="start" x="45.6934" y="-647.296" font-family="Times,serif" font-size="14.00">module = nn.Linear(20 &#45;&gt; 10)</text>
<text text-anchor="start" x="45.6934" y="-632.296" font-family="Times,serif" font-size="14.00">reverseMap = {}</text>
<text text-anchor="middle" x="128.693" y="-617.296" font-family="Times,serif" font-size="14.00">gradOutput = {Tensor[10]}</text>
</a>
</g>
</g>
<!-- n5&#45;&gt;n4 -->
<g id="edge4" class="edge"><title>n5&#45;&gt;n4</title>
<path fill="none" stroke="black" d="M128.693,-591.901C128.693,-583.662 128.693,-575.128 128.693,-566.72"/>
<polygon fill="black" stroke="black" points="132.194,-566.555 128.693,-556.555 125.194,-566.555 132.194,-566.555"/>
</g>
<!-- n6 -->
<g id="node6" class="node"><title>n6</title>
<g id="a_node6"><a xlink:title="[nngraph.lua]:8_">
<ellipse fill="none" stroke="black" cx="128.693" cy="-804.375" rx="118.174" ry="58.8803"/>
<text text-anchor="middle" x="128.693" y="-830.675" font-family="Times,serif" font-size="14.00">input (6)</text>
<text text-anchor="start" x="53.1934" y="-815.675" font-family="Times,serif" font-size="14.00">input = {Tensor[20]}</text>
<text text-anchor="start" x="53.1934" y="-800.675" font-family="Times,serif" font-size="14.00">module = nn.Identity</text>
<text text-anchor="start" x="53.1934" y="-785.675" font-family="Times,serif" font-size="14.00">reverseMap = {}</text>
<text text-anchor="middle" x="128.693" y="-770.675" font-family="Times,serif" font-size="14.00">gradOutput = {Tensor[20]}</text>
</a>
</g>
</g>
<!-- n6&#45;&gt;n5 -->
<g id="edge5" class="edge"><title>n6&#45;&gt;n5</title>
<path fill="none" stroke="black" d="M128.693,-745.281C128.693,-737.041 128.693,-728.507 128.693,-720.099"/>
<polygon fill="black" stroke="black" points="132.194,-719.934 128.693,-709.935 125.194,-719.935 132.194,-719.934"/>
</g>
<!-- n7 -->
<g id="node7" class="node"><title>n7</title>
<g id="a_node7"><a xlink:title="[[C]]:&#45;1_">
<ellipse fill="none" stroke="black" cx="128.693" cy="-947.148" rx="118.174" ry="48.1667"/>
<text text-anchor="middle" x="128.693" y="-965.948" font-family="Times,serif" font-size="14.00">Node7</text>
<text text-anchor="start" x="53.1934" y="-950.948" font-family="Times,serif" font-size="14.00">input = {Tensor[20]}</text>
<text text-anchor="start" x="53.1934" y="-935.948" font-family="Times,serif" font-size="14.00">reverseMap = {}</text>
<text text-anchor="middle" x="128.693" y="-920.948" font-family="Times,serif" font-size="14.00">gradOutput = {Tensor[20]}</text>
</a>
</g>
</g>
<!-- n7&#45;&gt;n6 -->
<g id="edge6" class="edge"><title>n7&#45;&gt;n6</title>
<path fill="none" stroke="black" d="M128.693,-898.881C128.693,-890.729 128.693,-882.111 128.693,-873.538"/>
<polygon fill="black" stroke="black" points="132.194,-873.524 128.693,-863.524 125.194,-873.524 132.194,-873.524"/>
</g>
</g>
</svg>
