<?xml version="1.0" encoding="UTF-8" standalone="no"?>
<!DOCTYPE svg PUBLIC "-//W3C//DTD SVG 1.1//EN"
 "http://www.w3.org/Graphics/SVG/1.1/DTD/svg11.dtd">
<!-- Generated by graphviz version 2.38.0 (20140413.2041)
 -->
<!-- Title: G Pages: 1 -->
<svg width="592pt" height="834pt"
 viewBox="0.00 0.00 592.09 833.53" xmlns="http://www.w3.org/2000/svg" xmlns:xlink="http://www.w3.org/1999/xlink">
<g id="graph0" class="graph" transform="scale(1 1) rotate(0) translate(4 829.526)">
<title>G</title>
<polygon fill="white" stroke="none" points="-4,4 -4,-829.526 588.09,-829.526 588.09,4 -4,4"/>
<!-- n1 -->
<g id="node1" class="node"><title>n1</title>
<g id="a_node1"><a xlink:title="[nngraph.lua]:55_">
<ellipse fill="green" stroke="black" cx="212.045" cy="-159.037" rx="124.402" ry="48.1667"/>
<text text-anchor="middle" x="212.045" y="-177.837" font-family="Times,serif" font-size="14.00">rnn_net2 (1)</text>
<text text-anchor="start" x="132.045" y="-162.837" font-family="Times,serif" font-size="14.00">module = nn.gModule</text>
<text text-anchor="start" x="132.045" y="-147.837" font-family="Times,serif" font-size="14.00">reverseMap = {}</text>
<text text-anchor="middle" x="212.045" y="-132.837" font-family="Times,serif" font-size="14.00">mapindex = {Node3,Node4}</text>
</a>
</g>
</g>
<!-- n2 -->
<g id="node2" class="node"><title>n2</title>
<g id="a_node2"><a xlink:title="[[C]]:&#45;1_">
<ellipse fill="none" stroke="black" cx="212.045" cy="-37.4767" rx="77.5641" ry="37.4533"/>
<text text-anchor="middle" x="212.045" y="-48.7767" font-family="Times,serif" font-size="14.00">Node2</text>
<text text-anchor="start" x="165.045" y="-33.7767" font-family="Times,serif" font-size="14.00">input = {}</text>
<text text-anchor="middle" x="212.045" y="-18.7767" font-family="Times,serif" font-size="14.00">reverseMap = {}</text>
</a>
</g>
</g>
<!-- n1&#45;&gt;n2 -->
<g id="edge1" class="edge"><title>n1&#45;&gt;n2</title>
<path fill="none" stroke="black" d="M212.045,-110.783C212.045,-102.338 212.045,-93.543 212.045,-85.1149"/>
<polygon fill="black" stroke="black" points="215.545,-85.0643 212.045,-75.0644 208.545,-85.0644 215.545,-85.0643"/>
</g>
<!-- n3 -->
<g id="node3" class="node"><title>n3</title>
<g id="a_node3"><a xlink:title="[nngraph.lua]:52_">
<ellipse fill="blue" stroke="black" cx="94.0452" cy="-291.203" rx="94.0904" ry="37.4533"/>
<text text-anchor="middle" x="94.0452" y="-302.503" font-family="Times,serif" font-size="14.00">input2 (3)</text>
<text text-anchor="start" x="35.5452" y="-287.503" font-family="Times,serif" font-size="14.00">module = nn.Identity</text>
<text text-anchor="middle" x="94.0452" y="-272.503" font-family="Times,serif" font-size="14.00">reverseMap = {}</text>
</a>
</g>
</g>
<!-- n3&#45;&gt;n1 -->
<g id="edge2" class="edge"><title>n3&#45;&gt;n1</title>
<path fill="none" stroke="black" d="M125.357,-255.663C137.451,-242.322 151.552,-226.767 164.824,-212.127"/>
<polygon fill="black" stroke="black" points="167.55,-214.33 171.674,-204.571 162.364,-209.629 167.55,-214.33"/>
</g>
<!-- n4 -->
<g id="node4" class="node"><title>n4</title>
<g id="a_node4"><a xlink:title="[nngraph.lua]:54_">
<ellipse fill="yellow" stroke="black" cx="330.045" cy="-291.203" rx="124.402" ry="48.1667"/>
<text text-anchor="middle" x="330.045" y="-310.003" font-family="Times,serif" font-size="14.00">rnn_net1 (4)</text>
<text text-anchor="start" x="250.045" y="-295.003" font-family="Times,serif" font-size="14.00">module = nn.gModule</text>
<text text-anchor="start" x="250.045" y="-280.003" font-family="Times,serif" font-size="14.00">reverseMap = {}</text>
<text text-anchor="middle" x="330.045" y="-265.003" font-family="Times,serif" font-size="14.00">mapindex = {Node6,Node7}</text>
</a>
</g>
</g>
<!-- n4&#45;&gt;n1 -->
<g id="edge3" class="edge"><title>n4&#45;&gt;n1</title>
<path fill="none" stroke="black" d="M289.436,-245.407C279.795,-234.771 269.425,-223.333 259.508,-212.393"/>
<polygon fill="black" stroke="black" points="262.038,-209.973 252.729,-204.915 256.852,-214.675 262.038,-209.973"/>
</g>
<!-- n5 -->
<g id="node5" class="node"><title>n5</title>
<g id="a_node5"><a xlink:title="[[C]]:&#45;1_&#45;2">
<ellipse fill="none" stroke="black" cx="94.0452" cy="-423.37" rx="77.5641" ry="48.1667"/>
<text text-anchor="middle" x="94.0452" y="-442.17" font-family="Times,serif" font-size="14.00">Node5</text>
<text text-anchor="start" x="47.0452" y="-427.17" font-family="Times,serif" font-size="14.00">input = {}</text>
<text text-anchor="start" x="47.0452" y="-412.17" font-family="Times,serif" font-size="14.00">selectindex = 2</text>
<text text-anchor="middle" x="94.0452" y="-397.17" font-family="Times,serif" font-size="14.00">reverseMap = {}</text>
</a>
</g>
</g>
<!-- n5&#45;&gt;n3 -->
<g id="edge4" class="edge"><title>n5&#45;&gt;n3</title>
<path fill="none" stroke="black" d="M94.0452,-375.008C94.0452,-363.202 94.0452,-350.553 94.0452,-338.784"/>
<polygon fill="black" stroke="black" points="97.5453,-338.712 94.0452,-328.712 90.5453,-338.712 97.5453,-338.712"/>
</g>
<!-- n6 -->
<g id="node6" class="node"><title>n6</title>
<g id="a_node6"><a xlink:title="[nngraph.lua]:51_">
<ellipse fill="blue" stroke="black" cx="284.045" cy="-423.37" rx="94.0904" ry="37.4533"/>
<text text-anchor="middle" x="284.045" y="-434.67" font-family="Times,serif" font-size="14.00">input1 (6)</text>
<text text-anchor="start" x="225.545" y="-419.67" font-family="Times,serif" font-size="14.00">module = nn.Identity</text>
<text text-anchor="middle" x="284.045" y="-404.67" font-family="Times,serif" font-size="14.00">reverseMap = {}</text>
</a>
</g>
</g>
<!-- n6&#45;&gt;n4 -->
<g id="edge5" class="edge"><title>n6&#45;&gt;n4</title>
<path fill="none" stroke="black" d="M296.859,-386.111C300.968,-374.482 305.622,-361.314 310.116,-348.596"/>
<polygon fill="black" stroke="black" points="313.478,-349.587 313.51,-338.992 306.878,-347.255 313.478,-349.587"/>
</g>
<!-- n7 -->
<g id="node7" class="node"><title>n7</title>
<g id="a_node7"><a xlink:title="[nngraph.lua]:53_">
<ellipse fill="blue" stroke="black" cx="490.045" cy="-423.37" rx="94.0904" ry="37.4533"/>
<text text-anchor="middle" x="490.045" y="-434.67" font-family="Times,serif" font-size="14.00">prev_h (7)</text>
<text text-anchor="start" x="431.545" y="-419.67" font-family="Times,serif" font-size="14.00">module = nn.Identity</text>
<text text-anchor="middle" x="490.045" y="-404.67" font-family="Times,serif" font-size="14.00">reverseMap = {}</text>
</a>
</g>
</g>
<!-- n7&#45;&gt;n4 -->
<g id="edge6" class="edge"><title>n7&#45;&gt;n4</title>
<path fill="none" stroke="black" d="M449.256,-389.186C431.435,-374.688 410.166,-357.384 390.559,-341.433"/>
<polygon fill="black" stroke="black" points="392.528,-338.524 382.562,-334.928 388.111,-343.954 392.528,-338.524"/>
</g>
<!-- n8 -->
<g id="node8" class="node"><title>n8</title>
<g id="a_node8"><a xlink:title="[[C]]:&#45;1_ split at [...heckmate/torch/install/share/lua/5.1/nngraph/gmodule.lua]:96&#45;mnode">
<ellipse fill="none" stroke="black" cx="284.045" cy="-677.096" rx="80.7205" ry="37.4533"/>
<text text-anchor="middle" x="284.045" y="-688.396" font-family="Times,serif" font-size="14.00">Node8</text>
<text text-anchor="start" x="235.045" y="-673.396" font-family="Times,serif" font-size="14.00">reverseMap = {}</text>
<text text-anchor="middle" x="284.045" y="-658.396" font-family="Times,serif" font-size="14.00">nSplitOutputs = 3</text>
</a>
</g>
</g>
<!-- n8&#45;&gt;n5 -->
<g id="edge7" class="edge"><title>n8&#45;&gt;n5</title>
<path fill="none" stroke="black" d="M241.034,-645.279C226.056,-633.307 209.819,-618.82 197.045,-603.619 165.114,-565.624 137.626,-516.375 119.098,-479.117"/>
<polygon fill="black" stroke="black" points="122.131,-477.352 114.583,-469.917 115.847,-480.436 122.131,-477.352"/>
</g>
<!-- n9 -->
<g id="node9" class="node"><title>n9</title>
<g id="a_node9"><a xlink:title="[[C]]:&#45;1_&#45;1">
<ellipse fill="none" stroke="black" cx="284.045" cy="-555.536" rx="77.5641" ry="48.1667"/>
<text text-anchor="middle" x="284.045" y="-574.336" font-family="Times,serif" font-size="14.00">Node9</text>
<text text-anchor="start" x="237.045" y="-559.336" font-family="Times,serif" font-size="14.00">input = {}</text>
<text text-anchor="start" x="237.045" y="-544.336" font-family="Times,serif" font-size="14.00">selectindex = 1</text>
<text text-anchor="middle" x="284.045" y="-529.336" font-family="Times,serif" font-size="14.00">reverseMap = {}</text>
</a>
</g>
</g>
<!-- n8&#45;&gt;n9 -->
<g id="edge11" class="edge"><title>n8&#45;&gt;n9</title>
<path fill="none" stroke="black" d="M284.045,-639.574C284.045,-631.48 284.045,-622.711 284.045,-614.007"/>
<polygon fill="black" stroke="black" points="287.545,-613.864 284.045,-603.865 280.545,-613.865 287.545,-613.864"/>
</g>
<!-- n10 -->
<g id="node10" class="node"><title>n10</title>
<g id="a_node10"><a xlink:title="[[C]]:&#45;1_&#45;3">
<ellipse fill="none" stroke="black" cx="474.045" cy="-555.536" rx="77.5641" ry="48.1667"/>
<text text-anchor="middle" x="474.045" y="-574.336" font-family="Times,serif" font-size="14.00">Node10</text>
<text text-anchor="start" x="427.045" y="-559.336" font-family="Times,serif" font-size="14.00">input = {}</text>
<text text-anchor="start" x="427.045" y="-544.336" font-family="Times,serif" font-size="14.00">selectindex = 3</text>
<text text-anchor="middle" x="474.045" y="-529.336" font-family="Times,serif" font-size="14.00">reverseMap = {}</text>
</a>
</g>
</g>
<!-- n8&#45;&gt;n10 -->
<g id="edge12" class="edge"><title>n8&#45;&gt;n10</title>
<path fill="none" stroke="black" d="M331.012,-646.542C355.299,-631.259 385.271,-612.398 411.494,-595.897"/>
<polygon fill="black" stroke="black" points="413.63,-598.688 420.23,-590.4 409.902,-592.764 413.63,-598.688"/>
</g>
<!-- n9&#45;&gt;n6 -->
<g id="edge8" class="edge"><title>n9&#45;&gt;n6</title>
<path fill="none" stroke="black" d="M284.045,-507.175C284.045,-495.368 284.045,-482.719 284.045,-470.951"/>
<polygon fill="black" stroke="black" points="287.545,-470.878 284.045,-460.878 280.545,-470.879 287.545,-470.878"/>
</g>
<!-- n10&#45;&gt;n7 -->
<g id="edge9" class="edge"><title>n10&#45;&gt;n7</title>
<path fill="none" stroke="black" d="M479.822,-507.543C481.275,-495.715 482.836,-483.022 484.289,-471.202"/>
<polygon fill="black" stroke="black" points="487.786,-471.435 485.532,-461.083 480.838,-470.581 487.786,-471.435"/>
</g>
<!-- n11 -->
<g id="node11" class="node"><title>n11</title>
<g id="a_node11"><a xlink:title="[[C]]:&#45;1_">
<ellipse fill="none" stroke="black" cx="284.045" cy="-788.049" rx="77.5641" ry="37.4533"/>
<text text-anchor="middle" x="284.045" y="-799.349" font-family="Times,serif" font-size="14.00">Node11</text>
<text text-anchor="start" x="237.045" y="-784.349" font-family="Times,serif" font-size="14.00">input = {}</text>
<text text-anchor="middle" x="284.045" y="-769.349" font-family="Times,serif" font-size="14.00">reverseMap = {}</text>
</a>
</g>
</g>
<!-- n11&#45;&gt;n8 -->
<g id="edge10" class="edge"><title>n11&#45;&gt;n8</title>
<path fill="none" stroke="black" d="M284.045,-750.466C284.045,-742.292 284.045,-733.512 284.045,-724.985"/>
<polygon fill="black" stroke="black" points="287.545,-724.768 284.045,-714.768 280.545,-724.768 287.545,-724.768"/>
</g>
</g>
</svg>
