<?xml version="1.0" encoding="UTF-8" standalone="no"?>
<!DOCTYPE svg PUBLIC "-//W3C//DTD SVG 1.1//EN"
 "http://www.w3.org/Graphics/SVG/1.1/DTD/svg11.dtd">
<!-- Generated by graphviz version 2.38.0 (20140413.2041)
 -->
<!-- Title: G Pages: 1 -->
<svg width="580pt" height="902pt"
 viewBox="0.00 0.00 580.19 902.05" xmlns="http://www.w3.org/2000/svg" xmlns:xlink="http://www.w3.org/1999/xlink">
<g id="graph0" class="graph" transform="scale(1 1) rotate(0) translate(4 898.053)">
<title>G</title>
<polygon fill="white" stroke="none" points="-4,4 -4,-898.053 576.186,-898.053 576.186,4 -4,4"/>
<!-- n1 -->
<g id="node1" class="node"><title>n1</title>
<g id="a_node1"><a xlink:title="[nngraph.lua]:44_">
<ellipse fill="none" stroke="black" cx="285.593" cy="-148.43" rx="84.2917" ry="37.4533"/>
<text text-anchor="middle" x="285.593" y="-159.73" font-family="Times,serif" font-size="14.00">next_h (1)</text>
<text text-anchor="start" x="234.093" y="-144.73" font-family="Times,serif" font-size="14.00">module = nn.Tanh</text>
<text text-anchor="middle" x="285.593" y="-129.73" font-family="Times,serif" font-size="14.00">reverseMap = {}</text>
</a>
</g>
</g>
<!-- n2 -->
<g id="node2" class="node"><title>n2</title>
<g id="a_node2"><a xlink:title="[[C]]:&#45;1_">
<ellipse fill="none" stroke="black" cx="285.593" cy="-37.4767" rx="77.5641" ry="37.4533"/>
<text text-anchor="middle" x="285.593" y="-48.7767" font-family="Times,serif" font-size="14.00">Node2</text>
<text text-anchor="start" x="238.593" y="-33.7767" font-family="Times,serif" font-size="14.00">input = {}</text>
<text text-anchor="middle" x="285.593" y="-18.7767" font-family="Times,serif" font-size="14.00">reverseMap = {}</text>
</a>
</g>
</g>
<!-- n1&#45;&gt;n2 -->
<g id="edge1" class="edge"><title>n1&#45;&gt;n2</title>
<path fill="none" stroke="black" d="M285.593,-110.847C285.593,-102.672 285.593,-93.8927 285.593,-85.3661"/>
<polygon fill="black" stroke="black" points="289.093,-85.1485 285.593,-75.1485 282.093,-85.1486 289.093,-85.1485"/>
</g>
<!-- n3 -->
<g id="node3" class="node"><title>n3</title>
<g id="a_node3"><a xlink:title="[nngraph.lua]:43_">
<ellipse fill="none" stroke="black" cx="285.593" cy="-269.99" rx="124.402" ry="48.1667"/>
<text text-anchor="middle" x="285.593" y="-288.79" font-family="Times,serif" font-size="14.00">added_h (3)</text>
<text text-anchor="start" x="205.593" y="-273.79" font-family="Times,serif" font-size="14.00">module = nn.CAddTable</text>
<text text-anchor="start" x="205.593" y="-258.79" font-family="Times,serif" font-size="14.00">reverseMap = {}</text>
<text text-anchor="middle" x="285.593" y="-243.79" font-family="Times,serif" font-size="14.00">mapindex = {Node4,Node5}</text>
</a>
</g>
</g>
<!-- n3&#45;&gt;n1 -->
<g id="edge2" class="edge"><title>n3&#45;&gt;n1</title>
<path fill="none" stroke="black" d="M285.593,-221.737C285.593,-213.291 285.593,-204.496 285.593,-196.068"/>
<polygon fill="black" stroke="black" points="289.093,-196.018 285.593,-186.018 282.093,-196.018 289.093,-196.018"/>
</g>
<!-- n4 -->
<g id="node4" class="node"><title>n4</title>
<g id="a_node4"><a xlink:title="[nngraph.lua]:41_">
<ellipse fill="none" stroke="black" cx="138.593" cy="-391.55" rx="138.686" ry="37.4533"/>
<text text-anchor="middle" x="138.593" y="-402.85" font-family="Times,serif" font-size="14.00">i2h (4)</text>
<text text-anchor="start" x="48.5929" y="-387.85" font-family="Times,serif" font-size="14.00">module = nn.Linear(128 &#45;&gt; 128)</text>
<text text-anchor="middle" x="138.593" y="-372.85" font-family="Times,serif" font-size="14.00">reverseMap = {}</text>
</a>
</g>
</g>
<!-- n4&#45;&gt;n3 -->
<g id="edge3" class="edge"><title>n4&#45;&gt;n3</title>
<path fill="none" stroke="black" d="M181.507,-355.647C195.092,-344.597 210.375,-332.167 224.959,-320.305"/>
<polygon fill="black" stroke="black" points="227.425,-322.811 232.975,-313.786 223.009,-317.38 227.425,-322.811"/>
</g>
<!-- n5 -->
<g id="node5" class="node"><title>n5</title>
<g id="a_node5"><a xlink:title="[nngraph.lua]:42_">
<ellipse fill="none" stroke="black" cx="433.593" cy="-391.55" rx="138.686" ry="37.4533"/>
<text text-anchor="middle" x="433.593" y="-402.85" font-family="Times,serif" font-size="14.00">h2h (5)</text>
<text text-anchor="start" x="343.593" y="-387.85" font-family="Times,serif" font-size="14.00">module = nn.Linear(128 &#45;&gt; 128)</text>
<text text-anchor="middle" x="433.593" y="-372.85" font-family="Times,serif" font-size="14.00">reverseMap = {}</text>
</a>
</g>
</g>
<!-- n5&#45;&gt;n3 -->
<g id="edge4" class="edge"><title>n5&#45;&gt;n3</title>
<path fill="none" stroke="black" d="M390.387,-355.647C376.637,-344.539 361.161,-332.037 346.407,-320.118"/>
<polygon fill="black" stroke="black" points="348.279,-317.131 338.301,-313.569 343.88,-322.576 348.279,-317.131"/>
</g>
<!-- n6 -->
<g id="node6" class="node"><title>n6</title>
<g id="a_node6"><a xlink:title="[nngraph.lua]:37_">
<ellipse fill="none" stroke="black" cx="160.593" cy="-502.503" rx="94.0904" ry="37.4533"/>
<text text-anchor="middle" x="160.593" y="-513.803" font-family="Times,serif" font-size="14.00">input (6)</text>
<text text-anchor="start" x="102.093" y="-498.803" font-family="Times,serif" font-size="14.00">module = nn.Identity</text>
<text text-anchor="middle" x="160.593" y="-483.803" font-family="Times,serif" font-size="14.00">reverseMap = {}</text>
</a>
</g>
</g>
<!-- n6&#45;&gt;n4 -->
<g id="edge5" class="edge"><title>n6&#45;&gt;n4</title>
<path fill="none" stroke="black" d="M153.206,-464.92C151.537,-456.656 149.744,-447.773 148.004,-439.158"/>
<polygon fill="black" stroke="black" points="151.408,-438.331 145.998,-429.222 144.546,-439.717 151.408,-438.331"/>
</g>
<!-- n7 -->
<g id="node7" class="node"><title>n7</title>
<g id="a_node7"><a xlink:title="[nngraph.lua]:38_">
<ellipse fill="none" stroke="black" cx="410.593" cy="-502.503" rx="94.0904" ry="37.4533"/>
<text text-anchor="middle" x="410.593" y="-513.803" font-family="Times,serif" font-size="14.00">prev_h (7)</text>
<text text-anchor="start" x="352.093" y="-498.803" font-family="Times,serif" font-size="14.00">module = nn.Identity</text>
<text text-anchor="middle" x="410.593" y="-483.803" font-family="Times,serif" font-size="14.00">reverseMap = {}</text>
</a>
</g>
</g>
<!-- n7&#45;&gt;n5 -->
<g id="edge6" class="edge"><title>n7&#45;&gt;n5</title>
<path fill="none" stroke="black" d="M418.316,-464.92C420.06,-456.656 421.935,-447.773 423.754,-439.158"/>
<polygon fill="black" stroke="black" points="427.21,-439.729 425.852,-429.222 420.361,-438.283 427.21,-439.729"/>
</g>
<!-- n8 -->
<g id="node8" class="node"><title>n8</title>
<g id="a_node8"><a xlink:title="[[C]]:&#45;1_&#45;1">
<ellipse fill="none" stroke="black" cx="168.593" cy="-624.063" rx="77.5641" ry="48.1667"/>
<text text-anchor="middle" x="168.593" y="-642.863" font-family="Times,serif" font-size="14.00">Node8</text>
<text text-anchor="start" x="121.593" y="-627.863" font-family="Times,serif" font-size="14.00">input = {}</text>
<text text-anchor="start" x="121.593" y="-612.863" font-family="Times,serif" font-size="14.00">selectindex = 1</text>
<text text-anchor="middle" x="168.593" y="-597.863" font-family="Times,serif" font-size="14.00">reverseMap = {}</text>
</a>
</g>
</g>
<!-- n8&#45;&gt;n6 -->
<g id="edge7" class="edge"><title>n8&#45;&gt;n6</title>
<path fill="none" stroke="black" d="M165.431,-575.81C164.866,-567.364 164.278,-558.569 163.714,-550.141"/>
<polygon fill="black" stroke="black" points="167.201,-549.835 163.041,-540.091 160.217,-550.302 167.201,-549.835"/>
</g>
<!-- n9 -->
<g id="node9" class="node"><title>n9</title>
<g id="a_node9"><a xlink:title="[[C]]:&#45;1_&#45;2">
<ellipse fill="none" stroke="black" cx="358.593" cy="-624.063" rx="77.5641" ry="48.1667"/>
<text text-anchor="middle" x="358.593" y="-642.863" font-family="Times,serif" font-size="14.00">Node9</text>
<text text-anchor="start" x="311.593" y="-627.863" font-family="Times,serif" font-size="14.00">input = {}</text>
<text text-anchor="start" x="311.593" y="-612.863" font-family="Times,serif" font-size="14.00">selectindex = 2</text>
<text text-anchor="middle" x="358.593" y="-597.863" font-family="Times,serif" font-size="14.00">reverseMap = {}</text>
</a>
</g>
</g>
<!-- n9&#45;&gt;n7 -->
<g id="edge8" class="edge"><title>n9&#45;&gt;n7</title>
<path fill="none" stroke="black" d="M378.4,-577.522C382.49,-568.118 386.797,-558.215 390.884,-548.819"/>
<polygon fill="black" stroke="black" points="394.102,-550.196 394.88,-539.63 387.682,-547.404 394.102,-550.196"/>
</g>
<!-- n10 -->
<g id="node10" class="node"><title>n10</title>
<g id="a_node10"><a xlink:title="[[C]]:&#45;1_ split at [...heckmate/torch/install/share/lua/5.1/nngraph/gmodule.lua]:96&#45;mnode">
<ellipse fill="none" stroke="black" cx="255.593" cy="-745.623" rx="80.7205" ry="37.4533"/>
<text text-anchor="middle" x="255.593" y="-756.923" font-family="Times,serif" font-size="14.00">Node10</text>
<text text-anchor="start" x="206.593" y="-741.923" font-family="Times,serif" font-size="14.00">reverseMap = {}</text>
<text text-anchor="middle" x="255.593" y="-726.923" font-family="Times,serif" font-size="14.00">nSplitOutputs = 2</text>
</a>
</g>
</g>
<!-- n10&#45;&gt;n8 -->
<g id="edge9" class="edge"><title>n10&#45;&gt;n8</title>
<path fill="none" stroke="black" d="M230.195,-709.72C222.608,-699.293 214.126,-687.637 205.941,-676.388"/>
<polygon fill="black" stroke="black" points="208.764,-674.319 200.05,-668.293 203.104,-678.438 208.764,-674.319"/>
</g>
<!-- n10&#45;&gt;n9 -->
<g id="edge10" class="edge"><title>n10&#45;&gt;n9</title>
<path fill="none" stroke="black" d="M284.833,-710.682C294.493,-699.469 305.447,-686.753 315.902,-674.618"/>
<polygon fill="black" stroke="black" points="318.806,-676.609 322.682,-666.748 313.503,-672.04 318.806,-676.609"/>
</g>
<!-- n11 -->
<g id="node11" class="node"><title>n11</title>
<g id="a_node11"><a xlink:title="[[C]]:&#45;1_">
<ellipse fill="none" stroke="black" cx="255.593" cy="-856.576" rx="77.5641" ry="37.4533"/>
<text text-anchor="middle" x="255.593" y="-867.876" font-family="Times,serif" font-size="14.00">Node11</text>
<text text-anchor="start" x="208.593" y="-852.876" font-family="Times,serif" font-size="14.00">input = {}</text>
<text text-anchor="middle" x="255.593" y="-837.876" font-family="Times,serif" font-size="14.00">reverseMap = {}</text>
</a>
</g>
</g>
<!-- n11&#45;&gt;n10 -->
<g id="edge11" class="edge"><title>n11&#45;&gt;n10</title>
<path fill="none" stroke="black" d="M255.593,-818.993C255.593,-810.819 255.593,-802.039 255.593,-793.512"/>
<polygon fill="black" stroke="black" points="259.093,-793.295 255.593,-783.295 252.093,-793.295 259.093,-793.295"/>
</g>
</g>
</svg>
